<mxfile host="app.diagrams.net" modified="2023-08-12T20:32:33.920Z" agent="Mozilla/5.0 (Windows NT 10.0; Win64; x64) AppleWebKit/537.36 (KHTML, like Gecko) Chrome/115.0.0.0 Safari/537.36 Edg/115.0.1901.203" etag="3dfPr8fghSkhPLw1_3cT" version="21.6.7" type="github">
  <diagram id="R2lEEEUBdFMjLlhIrx00" name="Page-1">
    <mxGraphModel dx="2166" dy="492" grid="1" gridSize="10" guides="1" tooltips="1" connect="1" arrows="1" fold="1" page="1" pageScale="1" pageWidth="850" pageHeight="1100" math="0" shadow="0" extFonts="Permanent Marker^https://fonts.googleapis.com/css?family=Permanent+Marker">
      <root>
        <mxCell id="0" />
        <mxCell id="1" parent="0" />
        <mxCell id="k6XpWZQrTvIHml3gS3ja-1" value="Student" style="whiteSpace=wrap;html=1;align=center;" vertex="1" parent="1">
          <mxGeometry x="380" y="260" width="100" height="40" as="geometry" />
        </mxCell>
        <mxCell id="k6XpWZQrTvIHml3gS3ja-5" style="edgeStyle=orthogonalEdgeStyle;rounded=0;orthogonalLoop=1;jettySize=auto;html=1;exitX=0.5;exitY=0;exitDx=0;exitDy=0;entryX=0.5;entryY=1;entryDx=0;entryDy=0;" edge="1" parent="1" source="k6XpWZQrTvIHml3gS3ja-2" target="k6XpWZQrTvIHml3gS3ja-1">
          <mxGeometry relative="1" as="geometry" />
        </mxCell>
        <mxCell id="k6XpWZQrTvIHml3gS3ja-2" value="Name" style="ellipse;whiteSpace=wrap;html=1;align=center;fontStyle=1" vertex="1" parent="1">
          <mxGeometry x="375" y="340" width="100" height="40" as="geometry" />
        </mxCell>
        <mxCell id="k6XpWZQrTvIHml3gS3ja-4" style="edgeStyle=orthogonalEdgeStyle;rounded=0;orthogonalLoop=1;jettySize=auto;html=1;exitX=0.5;exitY=0;exitDx=0;exitDy=0;entryX=0;entryY=0.5;entryDx=0;entryDy=0;" edge="1" parent="1" source="k6XpWZQrTvIHml3gS3ja-3" target="k6XpWZQrTvIHml3gS3ja-1">
          <mxGeometry relative="1" as="geometry" />
        </mxCell>
        <mxCell id="k6XpWZQrTvIHml3gS3ja-3" value="id" style="ellipse;whiteSpace=wrap;html=1;align=center;fontStyle=4;" vertex="1" parent="1">
          <mxGeometry x="250" y="330" width="100" height="40" as="geometry" />
        </mxCell>
        <mxCell id="k6XpWZQrTvIHml3gS3ja-7" style="edgeStyle=orthogonalEdgeStyle;rounded=0;orthogonalLoop=1;jettySize=auto;html=1;entryX=1;entryY=0.5;entryDx=0;entryDy=0;" edge="1" parent="1" source="k6XpWZQrTvIHml3gS3ja-6" target="k6XpWZQrTvIHml3gS3ja-1">
          <mxGeometry relative="1" as="geometry" />
        </mxCell>
        <mxCell id="k6XpWZQrTvIHml3gS3ja-9" style="edgeStyle=orthogonalEdgeStyle;rounded=0;orthogonalLoop=1;jettySize=auto;html=1;exitX=0.5;exitY=1;exitDx=0;exitDy=0;entryX=0.5;entryY=0;entryDx=0;entryDy=0;" edge="1" parent="1" source="k6XpWZQrTvIHml3gS3ja-6" target="k6XpWZQrTvIHml3gS3ja-8">
          <mxGeometry relative="1" as="geometry" />
        </mxCell>
        <mxCell id="k6XpWZQrTvIHml3gS3ja-11" style="edgeStyle=orthogonalEdgeStyle;rounded=0;orthogonalLoop=1;jettySize=auto;html=1;entryX=0.5;entryY=0;entryDx=0;entryDy=0;" edge="1" parent="1" source="k6XpWZQrTvIHml3gS3ja-6" target="k6XpWZQrTvIHml3gS3ja-10">
          <mxGeometry relative="1" as="geometry" />
        </mxCell>
        <mxCell id="k6XpWZQrTvIHml3gS3ja-6" value="contact" style="ellipse;whiteSpace=wrap;html=1;align=center;" vertex="1" parent="1">
          <mxGeometry x="610" y="260" width="100" height="40" as="geometry" />
        </mxCell>
        <mxCell id="k6XpWZQrTvIHml3gS3ja-8" value="email" style="ellipse;whiteSpace=wrap;html=1;align=center;" vertex="1" parent="1">
          <mxGeometry x="540" y="390" width="100" height="40" as="geometry" />
        </mxCell>
        <mxCell id="k6XpWZQrTvIHml3gS3ja-10" value="address" style="ellipse;whiteSpace=wrap;html=1;align=center;" vertex="1" parent="1">
          <mxGeometry x="680" y="390" width="100" height="40" as="geometry" />
        </mxCell>
        <mxCell id="k6XpWZQrTvIHml3gS3ja-13" style="edgeStyle=orthogonalEdgeStyle;rounded=0;orthogonalLoop=1;jettySize=auto;html=1;entryX=0.5;entryY=0;entryDx=0;entryDy=0;" edge="1" parent="1" source="k6XpWZQrTvIHml3gS3ja-12" target="k6XpWZQrTvIHml3gS3ja-1">
          <mxGeometry relative="1" as="geometry" />
        </mxCell>
        <mxCell id="k6XpWZQrTvIHml3gS3ja-12" value="phone" style="ellipse;shape=doubleEllipse;margin=3;whiteSpace=wrap;html=1;align=center;" vertex="1" parent="1">
          <mxGeometry x="220" y="210" width="100" height="40" as="geometry" />
        </mxCell>
        <mxCell id="k6XpWZQrTvIHml3gS3ja-14" value="Subject" style="whiteSpace=wrap;html=1;align=center;" vertex="1" parent="1">
          <mxGeometry x="260" y="470" width="100" height="40" as="geometry" />
        </mxCell>
        <mxCell id="k6XpWZQrTvIHml3gS3ja-16" style="edgeStyle=orthogonalEdgeStyle;rounded=0;orthogonalLoop=1;jettySize=auto;html=1;" edge="1" parent="1" source="k6XpWZQrTvIHml3gS3ja-15" target="k6XpWZQrTvIHml3gS3ja-14">
          <mxGeometry relative="1" as="geometry" />
        </mxCell>
        <mxCell id="k6XpWZQrTvIHml3gS3ja-15" value="id" style="ellipse;whiteSpace=wrap;html=1;align=center;fontStyle=4;" vertex="1" parent="1">
          <mxGeometry x="120" y="500" width="100" height="40" as="geometry" />
        </mxCell>
        <mxCell id="k6XpWZQrTvIHml3gS3ja-18" style="edgeStyle=orthogonalEdgeStyle;rounded=0;orthogonalLoop=1;jettySize=auto;html=1;entryX=0.5;entryY=1;entryDx=0;entryDy=0;" edge="1" parent="1" source="k6XpWZQrTvIHml3gS3ja-17" target="k6XpWZQrTvIHml3gS3ja-14">
          <mxGeometry relative="1" as="geometry" />
        </mxCell>
        <mxCell id="k6XpWZQrTvIHml3gS3ja-17" value="Name" style="ellipse;whiteSpace=wrap;html=1;align=center;" vertex="1" parent="1">
          <mxGeometry x="240" y="570" width="100" height="40" as="geometry" />
        </mxCell>
        <mxCell id="k6XpWZQrTvIHml3gS3ja-20" style="edgeStyle=orthogonalEdgeStyle;rounded=0;orthogonalLoop=1;jettySize=auto;html=1;entryX=0.7;entryY=0.967;entryDx=0;entryDy=0;entryPerimeter=0;" edge="1" parent="1" source="k6XpWZQrTvIHml3gS3ja-19" target="k6XpWZQrTvIHml3gS3ja-14">
          <mxGeometry relative="1" as="geometry" />
        </mxCell>
        <mxCell id="k6XpWZQrTvIHml3gS3ja-19" value="Description" style="ellipse;whiteSpace=wrap;html=1;align=center;" vertex="1" parent="1">
          <mxGeometry x="360" y="580" width="100" height="40" as="geometry" />
        </mxCell>
        <mxCell id="k6XpWZQrTvIHml3gS3ja-22" style="edgeStyle=orthogonalEdgeStyle;rounded=0;orthogonalLoop=1;jettySize=auto;html=1;entryX=1;entryY=0.5;entryDx=0;entryDy=0;" edge="1" parent="1" source="k6XpWZQrTvIHml3gS3ja-21" target="k6XpWZQrTvIHml3gS3ja-14">
          <mxGeometry relative="1" as="geometry" />
        </mxCell>
        <mxCell id="k6XpWZQrTvIHml3gS3ja-21" value="MaxScore" style="ellipse;whiteSpace=wrap;html=1;align=center;" vertex="1" parent="1">
          <mxGeometry x="490" y="540" width="100" height="40" as="geometry" />
        </mxCell>
        <mxCell id="k6XpWZQrTvIHml3gS3ja-23" value="Exam" style="whiteSpace=wrap;html=1;align=center;" vertex="1" parent="1">
          <mxGeometry x="-60" y="330" width="100" height="40" as="geometry" />
        </mxCell>
        <mxCell id="k6XpWZQrTvIHml3gS3ja-25" style="edgeStyle=orthogonalEdgeStyle;rounded=0;orthogonalLoop=1;jettySize=auto;html=1;entryX=0;entryY=0.5;entryDx=0;entryDy=0;" edge="1" parent="1" source="k6XpWZQrTvIHml3gS3ja-24" target="k6XpWZQrTvIHml3gS3ja-23">
          <mxGeometry relative="1" as="geometry" />
        </mxCell>
        <mxCell id="k6XpWZQrTvIHml3gS3ja-24" value="&lt;span style=&quot;border-bottom: 1px dotted&quot;&gt;id&lt;br&gt;&lt;/span&gt;" style="ellipse;whiteSpace=wrap;html=1;align=center;" vertex="1" parent="1">
          <mxGeometry x="-160" y="420" width="100" height="40" as="geometry" />
        </mxCell>
        <mxCell id="k6XpWZQrTvIHml3gS3ja-28" style="edgeStyle=orthogonalEdgeStyle;rounded=0;orthogonalLoop=1;jettySize=auto;html=1;entryX=0.5;entryY=1;entryDx=0;entryDy=0;" edge="1" parent="1" source="k6XpWZQrTvIHml3gS3ja-27" target="k6XpWZQrTvIHml3gS3ja-23">
          <mxGeometry relative="1" as="geometry" />
        </mxCell>
        <mxCell id="k6XpWZQrTvIHml3gS3ja-27" value="ExamDate" style="ellipse;whiteSpace=wrap;html=1;align=center;" vertex="1" parent="1">
          <mxGeometry x="-50" y="430" width="100" height="40" as="geometry" />
        </mxCell>
        <mxCell id="k6XpWZQrTvIHml3gS3ja-30" style="edgeStyle=orthogonalEdgeStyle;rounded=0;orthogonalLoop=1;jettySize=auto;html=1;entryX=0.683;entryY=0.054;entryDx=0;entryDy=0;entryPerimeter=0;" edge="1" parent="1" source="k6XpWZQrTvIHml3gS3ja-29" target="k6XpWZQrTvIHml3gS3ja-23">
          <mxGeometry relative="1" as="geometry" />
        </mxCell>
        <mxCell id="k6XpWZQrTvIHml3gS3ja-29" value="score" style="ellipse;whiteSpace=wrap;html=1;align=center;" vertex="1" parent="1">
          <mxGeometry x="-50" y="230" width="100" height="40" as="geometry" />
        </mxCell>
        <mxCell id="k6XpWZQrTvIHml3gS3ja-32" style="edgeStyle=orthogonalEdgeStyle;rounded=0;orthogonalLoop=1;jettySize=auto;html=1;" edge="1" parent="1" source="k6XpWZQrTvIHml3gS3ja-31" target="k6XpWZQrTvIHml3gS3ja-1">
          <mxGeometry relative="1" as="geometry" />
        </mxCell>
        <mxCell id="k6XpWZQrTvIHml3gS3ja-33" style="edgeStyle=orthogonalEdgeStyle;rounded=0;orthogonalLoop=1;jettySize=auto;html=1;entryX=1;entryY=0.5;entryDx=0;entryDy=0;" edge="1" parent="1" source="k6XpWZQrTvIHml3gS3ja-31" target="k6XpWZQrTvIHml3gS3ja-23">
          <mxGeometry relative="1" as="geometry" />
        </mxCell>
        <mxCell id="k6XpWZQrTvIHml3gS3ja-31" value="achieve score" style="shape=rhombus;perimeter=rhombusPerimeter;whiteSpace=wrap;html=1;align=center;" vertex="1" parent="1">
          <mxGeometry x="100" y="280" width="120" height="60" as="geometry" />
        </mxCell>
        <mxCell id="k6XpWZQrTvIHml3gS3ja-36" style="edgeStyle=orthogonalEdgeStyle;rounded=0;orthogonalLoop=1;jettySize=auto;html=1;entryX=1;entryY=0.75;entryDx=0;entryDy=0;" edge="1" parent="1" source="k6XpWZQrTvIHml3gS3ja-34" target="k6XpWZQrTvIHml3gS3ja-23">
          <mxGeometry relative="1" as="geometry" />
        </mxCell>
        <mxCell id="k6XpWZQrTvIHml3gS3ja-37" style="edgeStyle=orthogonalEdgeStyle;rounded=0;orthogonalLoop=1;jettySize=auto;html=1;entryX=0.5;entryY=0;entryDx=0;entryDy=0;" edge="1" parent="1" source="k6XpWZQrTvIHml3gS3ja-34" target="k6XpWZQrTvIHml3gS3ja-14">
          <mxGeometry relative="1" as="geometry" />
        </mxCell>
        <mxCell id="k6XpWZQrTvIHml3gS3ja-34" value="has" style="shape=rhombus;perimeter=rhombusPerimeter;whiteSpace=wrap;html=1;align=center;" vertex="1" parent="1">
          <mxGeometry x="90" y="390" width="120" height="60" as="geometry" />
        </mxCell>
      </root>
    </mxGraphModel>
  </diagram>
</mxfile>
